<?xml version="1.0" encoding="UTF-8"?><svg id="Layer_1" xmlns="http://www.w3.org/2000/svg" viewBox="0 0 8150 2000" width="163" height="40"><defs><style>.cls-1{fill:#000;stroke-width:0px;}</style></defs><path class="cls-1" d="M3453.64,1803.56c-108,0-208.09-19.44-300.25-58.32-90.72-40.32-169.2-95.77-235.46-166.33-64.8-72-115.91-156.25-153.36-252.73-35.99-97.92-54.01-205.21-54.01-321.85s17.3-219.61,51.85-317.54c34.55-99.36,83.51-185.05,146.89-257.05,64.8-73.44,142.56-130.33,233.28-170.65,92.16-41.76,195.13-62.64,308.9-62.64,95.04,0,180.01,13.68,254.89,41.04,74.88,25.92,138.96,62.64,192.25,110.16,54.71,46.08,97.91,100.81,129.59,164.17,31.68,63.36,51.86,131.77,60.48,205.21h-311.04c-14.4-77.76-49.7-139.69-105.87-185.77-56.15-47.52-129.59-71.28-220.32-71.28-72.01,0-134.65,14.4-187.94,43.2-51.83,27.36-95.04,65.52-129.59,114.48-34.58,48.96-60.48,106.57-77.78,172.81-17.28,66.25-25.9,137.53-25.9,213.85s9.35,151.93,28.08,218.17c20.15,66.25,48.24,123.85,84.23,172.81,37.45,47.52,82.1,84.96,133.93,112.32,53.29,25.92,112.34,38.88,177.13,38.88,92.16,0,167.76-24.48,226.81-73.44,60.48-50.4,95.76-116.64,105.84-198.73h306.75c-4.34,69.12-20.89,135.37-49.7,198.73-28.8,61.92-69.11,117.37-120.96,166.33-53.27,50.4-118.09,90.73-194.41,120.97-74.88,28.8-166.33,43.2-274.33,43.2ZM4198,663.02h293.76v1108.13h-293.76V663.02ZM4198,226.68h293.76v263.53h-293.76V226.68ZM4583.86,663.02h153.36v-345.62h287.29v345.62h190.1v194.41h-190.1v587.55c0,41.76,10.09,70.56,30.24,86.4,20.18,15.84,46.8,23.76,79.94,23.76h56.15c10.09,0,20.18-.72,30.24-2.16v216.01c-14.38,1.44-30.24,2.16-47.52,2.16-15.84,1.44-35.27,2.16-58.33,2.16h-77.76c-35.99,0-72.01-3.6-108-10.8-34.56-8.64-66.23-23.04-95.04-43.2-28.8-20.16-52.57-47.52-71.29-82.08-17.28-34.56-25.93-77.76-25.93-129.61v-650.19h-153.36v-194.41ZM5616.46,840.15h6.47c33.12-63.36,70.57-110.89,112.34-142.57,41.77-31.68,95.04-47.52,159.83-47.52,30.24,0,53.29,2.88,69.13,8.64v257.05h-6.47c-96.5-10.08-175.7,10.8-237.62,62.64-61.92,51.84-92.88,136.09-92.88,252.73v540.03h-293.78V663.02h282.98v177.13ZM6547.33,1803.56c-92.16,0-174.26-15.12-246.27-45.36-70.55-30.24-130.31-71.28-179.29-123.13-48.96-53.28-86.39-115.93-112.31-187.93-24.49-72-36.71-149.05-36.71-231.13s12.94-158.41,38.87-228.97c27.37-72,64.8-133.93,112.34-185.77,48.96-51.84,106.56-92.88,172.8-123.13,67.69-30.24,141.86-45.36,222.49-45.36,89.29,0,167.76,16.56,235.46,49.68,67.67,31.68,124.56,77.04,170.64,136.09,46.08,59.04,80.64,129.61,103.69,211.69,24.49,80.64,36.71,170.65,36.71,270.01h-803.55c11.53,86.41,40.33,154.09,86.41,203.05,47.52,48.96,113.03,73.44,196.57,73.44,57.61,0,103.69-12.24,138.24-36.72,34.55-24.48,59.76-57.6,75.6-99.36h289.45c-10.07,48.96-28.8,95.77-56.17,140.41-25.9,43.2-60.48,81.37-103.66,114.49-41.77,33.12-91.47,59.04-149.05,77.76-57.61,20.16-121.68,30.24-192.25,30.24ZM6523.56,859.59c-77.76,0-136.8,21.6-177.13,64.8-40.31,41.76-66.95,99.36-79.92,172.81h492.51c-4.31-70.56-28.08-127.45-71.29-170.65-41.77-44.64-96.47-66.96-164.17-66.96ZM7867.05,1771.16c-8.65-11.52-15.86-28.8-21.61-51.84-5.75-23.04-10.09-46.8-12.96-71.28h-4.31c-14.4,21.6-30.96,41.76-49.68,60.48-17.3,17.28-38.89,32.4-64.82,45.36-24.47,12.96-53.99,23.04-88.57,30.24-34.55,8.64-75.6,12.96-123.12,12.96-113.75,0-206.66-28.8-278.64-86.4-72.01-57.6-108.02-141.85-108.02-252.73,0-60.48,11.53-111.6,34.58-153.37,23.03-41.76,54.71-76.32,95.04-103.69,40.33-27.36,87.13-48.24,140.4-62.64,54.73-15.84,113.06-28.08,174.98-36.72,92.16-12.96,159.86-26.64,203.06-41.04,43.18-14.4,64.8-42.48,64.8-84.24s-15.84-72-47.52-95.04c-30.24-24.48-76.32-36.72-138.24-36.72-69.13,0-120.99,12.96-155.54,38.88-34.56,24.48-53.99,63.36-58.33,116.65h-261.36c1.44-48.96,12.24-95.04,32.4-138.25,20.15-44.64,49.68-83.52,88.57-116.65,38.89-33.12,87.85-59.76,146.89-79.92,59.04-20.16,128.87-30.24,209.53-30.24,165.61,0,284.41,36,356.4,108.01,73.45,70.56,110.18,170.65,110.18,300.25v563.79c0,83.52,12.96,134.64,38.87,153.37v10.8h-282.95ZM7573.26,1591.87c41.77,0,78.48-5.76,110.16-17.28,33.12-12.96,60.48-28.8,82.1-47.52,23.03-20.16,40.31-42.48,51.83-66.96,11.53-25.92,17.28-52.56,17.28-79.93v-166.33c-25.91,15.84-57.58,28.8-95.04,38.88-35.99,8.64-72.73,17.28-110.16,25.92-77.76,17.28-135.37,37.44-172.82,60.48-37.43,23.04-56.17,60.48-56.17,112.33s15.84,88.56,47.54,110.16c31.68,20.16,73.42,30.24,125.28,30.24Z"/><path class="cls-1" d="M1126.8,745.85c-56.96,0-107.96-29.45-136.44-78.77L605.21,0h1043.18l-385.15,667.08c-28.48,49.32-79.48,78.77-136.44,78.77Z"/><path class="cls-1" d="M1483.31,951.7c-56.96,0-107.97-29.45-136.45-78.78-28.48-49.32-28.48-108.22,0-157.55L1732,48.31l521.59,903.39h-770.29Z"/><path class="cls-1" d="M605.21,2000l385.15-667.07c28.48-49.32,79.48-78.77,136.44-78.77s107.96,29.45,136.44,78.77l385.15,667.07H605.21Z"/><path class="cls-1" d="M1346.87,1284.64c-28.49-49.32-28.49-108.22,0-157.55,28.48-49.32,79.49-78.77,136.45-78.77h770.29l-521.59,903.38-385.14-667.05Z"/><path class="cls-1" d="M0,951.7L521.6,48.31l385.13,667.06c28.49,49.32,28.49,108.22,0,157.55-28.48,49.33-79.49,78.78-136.45,78.78H0Z"/><path class="cls-1" d="M0,1048.31h770.29c56.96,0,107.97,29.45,136.45,78.77,28.48,49.33,28.48,108.23,0,157.55l-385.13,667.05L0,1048.31Z"/></svg>
