<svg xmlns="http://www.w3.org/2000/svg" xml:space="preserve" id="Layer_1" x="0" y="0" viewBox="0 0 32 32" class="rounded-full" width="32" height="32"><style>.st1{fill:#fff}</style><path d="M0 0h32v32H0z" style="fill: rgb(240, 120, 27);"></path><path d="M16 13.1c-.6 0-1.2-.3-1.5-.9l-4.4-7.5h11.8l-4.4 7.5c-.3.6-.9.9-1.5.9zM20 15.5c-.6 0-1.2-.3-1.5-.9-.3-.6-.3-1.2 0-1.8l4.4-7.5 5.9 10.2H20zM10.1 27.3l4.4-7.5c.3-.6.9-.9 1.5-.9s1.2.3 1.5.9l4.4 7.5H10.1zM18.5 19.2c-.3-.6-.3-1.2 0-1.8.3-.6.9-.9 1.5-.9h8.7l-5.9 10.2-4.3-7.5zM3.3 15.5 9.2 5.3l4.4 7.5c.3.6.3 1.2 0 1.8-.3.6-.9.9-1.5.9H3.3zM3.3 16.5H12c.6 0 1.2.3 1.5.9.3.6.3 1.2 0 1.8l-4.4 7.5-5.8-10.2z" class="st1"></path></svg>
