<svg xmlns="http://www.w3.org/2000/svg" fill="none" viewBox="0 0 2584 897" height="40"><path fill="#0090FF" fill-rule="evenodd" d="M450.756.008c245.399 1.456 446.743 202.436 444.922 452.207-.357 50.76-9.266 99.026-24.951 144.449-33.444-36.648-81.141-59.981-134.007-61.278l-3.519-.055c-71.115-.423-132.799 38.653-165.064 96.062-73.005 7.472-130.007 69.145-130.007 144.137l.013 1.874c.61 48.188 24.745 90.705 61.446 116.6a433 433 0 0 1-51.746 2.774C200.622 897.87-1.087 695.433.004 446.392 1.097 200.262 202.078-1.448 450.756.008m164.205 163.478c-44.781-1.82-76.822 20.756-101.944 55.344-24.76 34.227-35.683 74.275-47.697 113.961-3.277 11.652-6.191 23.304-9.833 36.045-43.328-6.189-85.197-12.38-128.16-18.57-1.457 11.653-2.913 22.577-4.372 34.229 42.601 6.554 83.38 12.743 125.252 19.294-5.827 24.031-10.926 46.24-16.386 68.815-41.142-5.825-80.465-11.286-119.789-16.746-1.456 12.743-2.911 22.572-4.367 33.859 39.686 6.189 77.917 12.015 116.147 17.84 0 4.368.726 6.921 0 9.104-12.379 52.064-23.667 104.86-37.502 156.563-6.554 24.757-17.115 48.423-37.503 65.899-16.747 14.199-35.319 12.012-48.062-5.826-5.824-8.01-10.557-17.476-18.202-22.939-5.463-4.003-17.842-6.552-21.845-3.275-5.827 5.098-10.196 15.656-9.831 23.666.366 6.918 7.279 15.293 13.468 20.026 20.754 16.021 45.517 18.204 70.274 13.471 41.871-8.376 71.361-34.589 89.568-71.363 14.561-28.764 25.122-59.712 35.315-90.662 9.104-28.034 15.294-56.797 22.574-85.923 41.143 6.19 81.195 12.013 122.338 17.838 3.641-11.649 6.553-22.572 9.83-33.859-42.963-6.554-84.105-12.383-125.248-18.572 5.098-24.392 9.465-45.876 14.198-69.542 38.957 5.463 77.19 10.924 116.511 16.386 3.277-11.651 6.189-21.844 9.466-33.496-40.413-5.825-79.008-11.653-120.516-17.843 14.2-49.517 26.215-96.85 41.142-143.09 4.733-15.291 16.021-29.49 27.308-41.504 14.929-15.294 35.318-12.017 48.062 5.094 5.098 6.919 10.193 14.566 16.386 20.756 8.01 7.645 20.023 11.649 28.033 4.004 5.098-5.098 8.376-17.112 5.461-25.487-2.547-6.918-4.003-7.645-6.915-10.922-14.2-16.021-33.134-21.845-53.161-22.575" clip-rule="evenodd"></path><path fill="#fff" fill-rule="evenodd" d="M459.129 602.222c-10.196 30.949-20.754 61.896-35.318 90.66-18.206 36.774-47.697 62.991-89.569 71.363-24.758 4.733-49.515 2.55-70.269-13.47-6.189-4.733-13.108-13.108-13.473-20.027-.365-8.011 4.007-18.568 9.831-23.666 4.004-3.277 16.386-.727 21.846 3.277 7.645 5.463 12.378 14.929 18.206 22.939 12.743 17.842 31.311 20.024 48.058 5.825 20.392-17.477 30.95-41.143 37.504-65.9 13.835-51.704 25.122-104.496 37.501-156.564.73-2.183 0-4.733 0-9.101-38.23-5.825-76.461-11.653-116.147-17.842 1.456-11.287 2.915-21.115 4.371-33.859 39.322 5.46 78.644 10.923 119.786 16.747 5.463-22.574 10.558-44.784 16.386-68.812-41.873-6.554-82.65-12.744-125.249-19.298 1.456-11.652 2.912-22.574 4.368-34.226 42.964 6.189 84.833 12.378 128.161 18.571 3.642-12.744 6.555-24.396 9.832-36.048 12.014-39.687 22.939-79.735 47.696-113.962 25.123-34.588 57.164-57.163 101.948-55.342 20.024.729 38.957 6.554 53.157 22.575 2.912 3.277 4.368 4.003 6.919 10.922 2.912 8.375-.365 20.389-5.463 25.487-8.01 7.645-20.024 3.642-28.034-4.007-6.19-6.189-11.288-13.834-16.386-20.753-12.743-17.112-33.132-20.389-48.061-5.095-11.285 12.014-22.572 26.213-27.305 41.504-14.93 46.241-26.943 93.576-41.143 143.091 41.504 6.189 80.1 12.016 120.516 17.841-3.277 11.652-6.19 21.845-9.467 33.497-39.324-5.462-77.552-10.922-116.512-16.385-4.733 23.666-9.101 45.149-14.199 69.542 41.142 6.189 82.285 12.017 125.249 18.571-3.277 11.287-6.19 22.21-9.832 33.859a14106 14106 0 0 1-122.336-17.839c-6.916 29.126-13.106 57.89-22.572 85.925" clip-rule="evenodd"></path><path fill="#fff" d="M733.048 561.09c64.828.387 121.195 39.241 146.614 95.305h1.163c65.796 0 119.175 53.339 119.175 119.135s-53.339 119.135-119.135 119.136h-297.84c-65.797-.001-119.135-53.339-119.135-119.136s53.378-119.135 119.175-119.135h1.25c25.553-56.296 82.428-95.7 148.733-95.305"></path><path fill="url(#foc-logo-light_svg__a)" d="M880.865 894.666C946.661 894.665 1000 841.327 1000 775.53s-53.379-119.135-119.175-119.135h-1.163c-25.419-56.064-81.786-94.918-146.614-95.305-66.305-.395-123.18 39.009-148.733 95.305h-1.25c-65.797 0-119.175 53.339-119.175 119.135s53.338 119.135 119.135 119.136zm72.769-119.136c0 40.19-32.58 72.769-72.769 72.769h-297.84c-40.19 0-72.769-32.579-72.769-72.769l.022-1.876c.997-39.303 33.205-70.893 72.787-70.893h31.124l12.347-27.202c18.318-40.359 58.998-68.384 106.235-68.103 46.112.275 86.458 27.932 104.663 68.085l12.342 27.22h31.049c40.209 0 72.809 32.601 72.809 72.769"></path><path fill="#fff" d="M2584 711.346h-26.88v-15.995c-7.78 11.552-19.99 18.661-36.66 18.661-33.54 0-51.76-25.992-51.76-60.426s18.22-60.426 51.76-60.426c16 0 27.77 6.442 35.55 17.105v-58.87H2584zm-86.86-57.76c0 22.215 9.33 37.099 29.77 37.099 20.21 0 29.54-14.884 29.54-37.099 0-22.216-9.33-37.1-29.54-37.1-20.44 0-29.77 14.884-29.77 37.1m-122.21 11.774c0 13.995 6.22 24.214 22.22 24.214 9.55 0 24.66-5.331 26.65-25.547v-68.202h28v115.521h-27.11v-15.773c-7.99 10.663-19.99 18.438-36.43 18.438-26.66 0-41.1-18.216-41.1-45.319v-72.867h27.77zm-103.05 48.651c-37.1 0-58.42-25.992-58.42-60.426s21.32-60.426 58.42-60.426 58.43 25.992 58.43 60.426-21.33 60.426-58.43 60.426m-29.99-60.426c0 22.216 9.33 37.1 29.99 37.1 20.67 0 30-14.884 30-37.1 0-22.215-9.33-37.1-30-37.1-20.66 0-29.99 14.885-29.99 37.1m-90.77-102.19h27.99v127.516c0 7.553 2.67 10.886 11.11 10.886h15.1v21.549h-22.21c-19.55 0-31.99-6.221-31.99-29.547zm-88.03 162.616c-51.98 0-79.08-37.766-79.08-82.641s27.1-82.641 79.08-82.641c39.33 0 65.1 25.103 70.43 58.648h-30.22c-3.99-18.883-18.66-31.99-40.21-31.99-33.54 0-47.98 25.77-47.98 55.983s14.44 55.983 47.98 55.983c23.11 0 37.55-15.329 41.1-36.211h29.99c-4.22 35.767-29.99 62.869-71.09 62.869m-172.5-72.2c0-13.996-6.22-24.215-22.21-24.215-9.55 0-24.66 5.332-26.66 25.548v68.201h-27.99v-115.52h27.1v15.773c8-10.663 20-18.439 36.44-18.439 26.65 0 41.09 18.217 41.09 45.32v72.866h-27.77zm-126.28 69.535V595.825h27.77v115.521zm0-133.959v-25.992h27.99v25.992zm-44.88 133.958v-13.329c-10 11.996-22.22 15.995-36.66 15.995-25.1 0-42.21-12.44-42.21-34.878 0-20.438 14.44-30.657 44.43-35.767l33.55-5.998v-6.665c0-10.441-6.22-15.995-21.1-15.995-12.67 0-23.33 5.332-24 17.995h-27.54c.44-27.547 23.54-39.544 51.31-39.544 32.88 0 48.65 13.329 48.65 34.434v83.752zm-50.21-33.101c0 9.109 6.22 15.107 19.77 15.107 14.67 0 29.55-7.776 29.55-26.881v-10.219l-28.44 5.776c-13.1 2.666-20.88 5.776-20.88 16.217m-148.86 33.102V551.395h27.99v59.093c7.99-9.997 19.55-17.328 35.54-17.328 26.66 0 41.1 18.216 41.1 45.319v72.867h-27.77v-69.535c0-13.995-6.22-24.214-22.21-24.214-9.56 0-24.66 5.331-26.66 25.547v68.202zm-68.59 2.665c-35.32 0-56.65-25.992-56.65-60.426s21.33-60.426 56.65-60.426c31.77 0 49.99 17.995 53.54 43.987h-27.99c-2.66-12.885-11.77-20.661-25.55-20.661-18.88 0-28.21 14.885-28.21 37.1s9.33 37.1 28.21 37.1c14.22 0 23.11-8.22 25.55-21.993h27.99c-3.33 26.658-22.43 45.319-53.54 45.319m-101.76-72.2c0-13.996-6.23-24.215-22.22-24.215-9.55 0-24.66 5.332-26.66 25.548v68.201h-27.99v-115.52h27.1v15.773c8-10.663 20-18.439 36.44-18.439 26.65 0 41.09 18.217 41.09 45.32v72.866h-27.76zm-172.92 72.2c-51.99 0-79.09-37.766-79.09-82.641s27.1-82.641 79.09-82.641c51.76 0 79.08 37.766 79.08 82.641s-27.32 82.641-79.08 82.641m-47.99-82.641c0 30.213 14.44 55.983 47.99 55.983 33.54 0 47.98-25.77 47.98-55.983s-14.44-55.983-47.98-55.983c-33.55 0-47.99 25.77-47.99 55.983m1403.2-278.718c0-26.295-11.54-45.495-41.19-45.495-17.72 0-45.73 10.017-49.43 48v128.138h-51.9V266.253h50.25v29.634c14.83-20.034 37.07-34.643 67.55-34.643 49.43 0 76.21 34.226 76.21 85.147v136.904h-51.49zm-239.97 130.643V266.253h52.17v217.042zm0-251.685v-48.835h52.59v48.835zm-142.61 256.693c-69.7 0-109.77-48.834-109.77-113.529s40.07-113.53 109.77-113.53c69.71 0 109.78 48.835 109.78 113.53s-40.07 113.529-109.78 113.529m-56.35-113.529c0 41.739 17.54 69.704 56.35 69.704 38.82 0 56.35-27.965 56.35-69.704s-17.53-69.704-56.35-69.704c-38.81 0-56.35 27.965-56.35 69.704m-177.26 113.529c-66.37 0-106.44-48.834-106.44-113.529s40.07-113.53 106.44-113.53c59.68 0 93.91 33.809 100.59 82.643h-52.59c-5.01-24.208-22.13-38.817-48-38.817-35.48 0-53.01 27.965-53.01 69.704s17.53 69.704 53.01 69.704c26.71 0 43.4-15.444 48-41.322h52.59c-6.26 50.087-42.16 85.147-100.59 85.147m-235.74 0c-67.2 0-107.27-48.834-107.27-113.529s40.07-113.53 107.27-113.53 107.27 47.165 107.27 117.704v12.521h-162.37c4.59 33.809 23.79 55.513 55.1 55.513 25.46 0 42.57-10.852 51.75-30.052h51.34c-14.19 42.991-51.34 71.373-103.09 71.373m-54.68-134.399h108.94c-5.43-31.721-24.21-51.338-54.26-51.338s-48.84 19.617-54.68 51.338m-168.42-171.129h52.59v239.581c0 14.191 5.01 20.452 20.87 20.452h28.38v40.487h-41.74c-36.73 0-60.1-11.687-60.1-55.513zm-99.6 300.52V266.253h52.17v217.042zm0-251.685v-48.835h52.59v48.835zm-244.2 251.685v-300.52h212.03v50.504h-156.1v71.374h148.17v48.417H1169.4v130.225z"></path><defs><linearGradient id="foc-logo-light_svg__a" x1="463.89" x2="1048.74" y1="561.087" y2="689.616" gradientUnits="userSpaceOnUse"><stop stop-color="#39C1CB"></stop><stop offset="1" stop-color="#006FEC"></stop></linearGradient></defs></svg>
