<svg xmlns="http://www.w3.org/2000/svg" width="490" height="132" fill="none"><path fill="#fff" fill-rule="evenodd" d="M39 0h10v22.281C70.946 24.763 88 43.391 88 66c0 22.61-17.054 41.237-39 43.719V132H39v-22.281C17.054 107.237 0 88.609 0 66c0-22.61 17.054-41.237 39-43.719V0ZM10 66c0-17.079 12.593-31.217 29-33.635v67.27C22.593 97.217 10 83.079 10 66Zm68 0c0-17.079-12.593-31.217-29-33.635v67.27C65.407 97.217 78 83.079 78 66Zm57.251-25.691c-.927 2.378-1.391 5.118-1.391 8.22v2.97H121v7.89h12.86v40.064h10.605V59.388h17.765V51.5h-17.765v-2.97c0-3.338.877-5.908 2.63-7.71 1.753-1.803 4.529-2.704 8.33-2.704 1.915 0 3.638.125 5.17.377 1.532.25 2.873.539 4.022.864l.928-8.421a160.797 160.797 0 0 0-5.767-1.086 34.96 34.96 0 0 0-5.811-.465c-3.094 0-5.878.42-8.352 1.263-2.475.842-4.589 2.068-6.342 3.678-1.753 1.61-3.093 3.605-4.022 5.984Zm119.98 58.103c2.313-1.315 4.28-3.154 5.9-5.518l.619 6.559h9.545V51.499h-10.606v34.038c-.884 1.89-2.195 3.39-3.933 4.498-1.739 1.108-4.022 1.662-6.85 1.662-1.473 0-2.74-.185-3.8-.554a5.747 5.747 0 0 1-2.652-1.883c-.707-.887-1.23-2.084-1.568-3.59-.339-1.507-.509-3.413-.509-5.718V51.5h-10.562v28.365c0 3.634.406 6.744 1.216 9.33.81 2.584 1.944 4.712 3.403 6.381a12.903 12.903 0 0 0 5.258 3.656c2.048.769 4.309 1.153 6.784 1.153 2.857 0 5.443-.657 7.755-1.972Zm42.137.154c2.917 1.183 6.142 1.773 9.678 1.773 2.386 0 4.588-.258 6.606-.775s3.838-1.197 5.458-2.039c1.62-.842 3.034-1.802 4.242-2.88 1.208-1.08 2.195-2.194 2.961-3.347l-5.745-5.407c-1.414 1.862-3.248 3.324-5.502 4.388-2.253 1.063-4.721 1.596-7.401 1.596-1.915 0-3.676-.333-5.282-.998a13.122 13.122 0 0 1-4.198-2.748c-1.193-1.167-2.158-2.548-2.894-4.144-.737-1.595-1.194-3.323-1.37-5.185h33.143v-4.476c0-3.457-.456-6.633-1.369-9.529-.914-2.895-2.262-5.4-4.044-7.512-1.782-2.113-3.999-3.753-6.651-4.92-2.651-1.167-5.715-1.75-9.192-1.75-3.005 0-5.87.576-8.595 1.728a21.11 21.11 0 0 0-7.159 4.964c-2.047 2.157-3.682 4.757-4.905 7.8-1.223 3.044-1.834 6.47-1.834 10.282v1.818c0 3.28.574 6.33 1.723 9.152 1.149 2.821 2.762 5.266 4.84 7.335 2.076 2.068 4.573 3.693 7.49 4.875Zm4.286-38.602c1.267-.532 2.637-.798 4.11-.798 1.797 0 3.366.31 4.706.931 1.341.62 2.453 1.448 3.337 2.482a10.854 10.854 0 0 1 2.011 3.523 15.36 15.36 0 0 1 .817 4.1V71H294.23c.295-1.862.788-3.523 1.481-4.986.692-1.462 1.539-2.704 2.541-3.723a10.354 10.354 0 0 1 3.402-2.327Zm47.639-1.817-.663-6.648h-9.546v47.954h10.607V65.061c1.06-1.773 2.452-3.176 4.176-4.21 1.723-1.034 3.749-1.552 6.076-1.552 1.532 0 2.902.17 4.11.51 1.208.34 2.231.909 3.071 1.706.84.798 1.488 1.862 1.945 3.192.456 1.33.684 2.984.684 4.963v29.783h10.562v-29.96c0-3.368-.405-6.249-1.215-8.642-.81-2.394-1.945-4.344-3.403-5.85a13.277 13.277 0 0 0-5.214-3.324c-2.019-.71-4.25-1.064-6.696-1.064-3.004 0-5.737.657-8.197 1.972-2.46 1.315-4.559 3.169-6.297 5.562Zm68.783 33.151c-1.223.414-2.48.62-3.777.62-2.24 0-4.096-.45-5.569-1.351a10.426 10.426 0 0 1-3.535-3.545c-.884-1.463-1.51-3.125-1.878-4.987a29.33 29.33 0 0 1-.553-5.717v-1.595c0-1.92.184-3.812.553-5.673.368-1.862.994-3.524 1.878-4.986a10.426 10.426 0 0 1 3.535-3.546c1.473-.9 3.315-1.352 5.523-1.352 1.476 0 2.831.252 4.067.754 1.235.502 2.314 1.182 3.227 2.039a8.767 8.767 0 0 1 2.099 3.014 8.815 8.815 0 0 1 .682 3.678h9.988c.029-2.63-.446-5.053-1.434-7.269a16.688 16.688 0 0 0-4.157-5.717c-1.781-1.595-3.901-2.836-6.36-3.723-2.463-.886-5.136-1.33-8.021-1.33-3.655 0-6.866.644-9.635 1.929-2.769 1.285-5.082 3.021-6.938 5.207-1.856 2.187-3.248 4.742-4.176 7.668-.928 2.925-1.393 6.027-1.393 9.307v1.595c0 3.28.465 6.375 1.393 9.285.928 2.91 2.32 5.466 4.176 7.667 1.856 2.202 4.169 3.938 6.938 5.208s5.995 1.906 9.677 1.906c2.653 0 5.186-.443 7.603-1.33 2.413-.886 4.542-2.083 6.385-3.59 1.839-1.507 3.297-3.272 4.376-5.296a13.277 13.277 0 0 0 1.566-6.493h-9.988a6.375 6.375 0 0 1-.773 3.28 8.39 8.39 0 0 1-2.231 2.615 10.845 10.845 0 0 1-3.248 1.728Zm42.225 7.269c2.917 1.182 6.144 1.772 9.678 1.772 2.388 0 4.591-.258 6.607-.775 2.017-.517 3.839-1.197 5.459-2.039 1.62-.842 3.033-1.802 4.24-2.88 1.211-1.08 2.194-2.194 2.963-3.347l-5.744-5.407c-1.418 1.862-3.248 3.324-5.504 4.388-2.253 1.063-4.72 1.596-7.402 1.596-1.913 0-3.673-.333-5.281-.998a13.1 13.1 0 0 1-4.198-2.748c-1.195-1.167-2.157-2.548-2.893-4.144-.74-1.595-1.194-3.323-1.372-5.185H490v-4.476c0-3.457-.459-6.633-1.372-9.529-.913-2.895-2.26-5.4-4.041-7.512-1.786-2.113-4.001-3.753-6.654-4.92-2.653-1.167-5.715-1.75-9.19-1.75-3.004 0-5.872.576-8.595 1.728a21.113 21.113 0 0 0-7.162 4.964c-2.045 2.157-3.682 4.757-4.905 7.8-1.219 3.044-1.831 6.47-1.831 10.282v1.818c0 3.28.575 6.33 1.724 9.152 1.148 2.821 2.76 5.266 4.839 7.335 2.074 2.068 4.57 3.693 7.488 4.875Zm4.016-38.657c1.269-.532 2.637-.797 4.112-.797 1.798 0 3.364.31 4.707.93 1.339.62 2.45 1.448 3.335 2.482a10.89 10.89 0 0 1 2.012 3.524 15.35 15.35 0 0 1 .814 4.1v.797h-22.402c.294-1.862.786-3.524 1.48-4.986.69-1.463 1.537-2.704 2.541-3.723a10.36 10.36 0 0 1 3.401-2.327Zm-260.37-28.532h-25.852v8.82h15.202v50.48h-15.202v8.775h40.435v-8.775h-14.583v-59.3Z" clip-rule="evenodd"/></svg>